<?xml version="1.0" encoding="UTF-8" standalone="no"?>
<!-- Generator: Adobe Illustrator 16.0.3, SVG Export Plug-In . SVG Version: 6.00 Build 0)  -->

<svg
   version="1.1"
   id="Capa_1"
   x="0px"
   y="0px"
   width="720"
   height="720"
   viewBox="0 0 719.99996 719.99999"
   enable-background="new 0 0 595.28 841.89"
   xml:space="preserve"
   sodipodi:docname="Logo de la Loteria Nacional (sin texto).svg"
   inkscape:version="1.1 (c68e22c387, 2021-05-23)"
   xmlns:inkscape="http://www.inkscape.org/namespaces/inkscape"
   xmlns:sodipodi="http://sodipodi.sourceforge.net/DTD/sodipodi-0.dtd"
   xmlns="http://www.w3.org/2000/svg"
   xmlns:svg="http://www.w3.org/2000/svg"><defs
   id="defs25" /><sodipodi:namedview
   id="namedview23"
   pagecolor="#ffffff"
   bordercolor="#666666"
   borderopacity="1.0"
   inkscape:pageshadow="2"
   inkscape:pageopacity="0.0"
   inkscape:pagecheckerboard="0"
   showgrid="false"
   fit-margin-top="0"
   fit-margin-left="0"
   fit-margin-right="0"
   fit-margin-bottom="0"
   inkscape:zoom="0.34940006"
   inkscape:cx="525.18594"
   inkscape:cy="751.28779"
   inkscape:window-width="1920"
   inkscape:window-height="1017"
   inkscape:window-x="1912"
   inkscape:window-y="-8"
   inkscape:window-maximized="1"
   inkscape:current-layer="Capa_1" />
<g
   id="g20"
   transform="matrix(0.36720217,0,0,0.36719422,249.65767,205.26675)">
	<g
   id="g18">
		
		<path
   id="path4"
   d="m 315.37305,-558.91211 c -552.025,-7.852 -994.88168,438.721 -995.26367,978.75 -0.76201,541.059 437.94401,979.53511 975.79101,981.95311 543.68,2.445 986.12151,-439.57255 984.97851,-982.22655 -1.131,-537.129 -434.38285,-970.92156 -965.50585,-978.47656 z m -0.18555,68.11914 c 494.129,7.346 897.2175,411.503548 897.6855,912.31055 -0.042,503.529 -411.90516,917.90612 -923.53316,912.16012 -497.07,-5.582 -907.48575,-414.33681 -901.09375,-924.96481 6.202,-495.437999 414.25841,-907.12686 926.94141,-899.50586 z"
   style="fill:#aa0432;fill-opacity:1" />
		
		<path
   id="path8"
   d="m 314.14062,-401.65039 c -464.37599,-7.276 -834.48135,366.031156 -836.81835,818.03516 -2.368,457.842 366.36548,824.90123 816.27148,828.11523 459.547,4.174 837.17745,-370.50919 829.98245,-836.36719 -6.856,-443.790997 -364.96358,-802.8202 -809.43558,-809.7832 z m 1.66993,176.17578 c 93.35234,2.43533 183.06392,23.05989 269.04492,62.02539 80.714,36.576 151.86414,86.911548 213.36914,150.685548 85.088,88.229 143.17094,191.749782 174.33594,310.300782 8.629,32.824 14.87603,66.14945 18.08203,99.93945 2.475,26.082 1.50458,52.22452 -0.48242,78.35352 -3.127,41.093 -10.46893,81.39219 -22.16993,120.86719 -27.174,91.674 -73.80151,172.17596 -139.85351,241.29296 -68.011,71.166 -148.86181,122.26024 -242.25781,153.36524 -38.108,12.69103 -77.18243,21.12063 -117.10743,25.76363 -31.02,3.607 -62.11853,4.7537 -93.26953,3.4317 -84.045,-3.567 -164.02514,-23.64044 -239.11914,-61.60744 -118.495997,-59.911 -207.564544,-149.5435 -266.93554,-268.3125 -29.018,-58.049 -47.21774,-119.52578 -55.67774,-183.92578 -4.526,-34.462 -6.05941,-69.04255 -4.44141,-103.68555 4.80601,-102.973 34.03226,-198.53886 88.78126,-286.00586 59.038995,-94.319998 138.543167,-166.380154 237.82617,-216.535154 53.066,-26.808996 109.11723,-44.713066 167.74023,-54.414066 25.787,-4.267 51.76603,-7.06668 77.95703,-7.30468 0.819,-0.007 1.63722,-0.13527 2.44922,-0.44727 -16.557,-1.325 -33.12392,-0.86328 -49.66992,-0.11328 -26.952,1.223 -53.75652,4.09 -80.35352,8.625 -61.346,10.462 -120.19934,28.87492 -176.40234,55.669921 -83.358,39.742 -155.670781,94.2203277 -216.67578,163.486328 -70.167,79.670001 -118.95152,170.873261 -146.22852,273.572261 -18.008,67.803 -24.89792,136.76427 -21.41992,206.69727 6.102,122.683 41.59564,236.43253 106.55664,340.64453 65.094,104.426 151.566299,186.38097 260.779299,243.74997 38.232,20.083 78.229561,35.8591 119.851561,47.4551 0.142,0.04 0.25691,0.1755 1.37891,0.9785 -14.437,-1.927 -27.74996,-4.6642 -41.00196,-7.6582 -79.017996,-17.854 -152.284074,-49.2734 -219.955074,-93.7304 -58.185996,-38.225 -109.367766,-84.3068 -154.009766,-137.7188 -42.553,-50.913 -77.47383,-106.60215 -104.79883,-167.03515 -24.06,-53.213 -41.59706,-108.49217 -52.28906,-165.95117 -6.831,-36.707 -10.82862,-73.66738 -12.14063,-110.98438 -1.302,-37.025 0.5971,-73.84308 5.1211,-110.58008 9.935,-80.647 33.50381,-157.1377 70.38281,-229.4707 35.249,-69.137001 80.813,-130.734892 136.625,-184.712892 72.749,-70.359 156.720392,-122.697628 252.025392,-156.765628 C 107.03742,-201.6783 153.422,-212.92259 201,-219.30859 c 24.765,-3.324 49.60208,-5.36766 74.58008,-6.09766 13.48437,-0.39413 26.89442,-0.41626 40.23047,-0.0684 z"
   style="fill:#aa0432;fill-opacity:1" />
		
		<path
   fill-rule="evenodd"
   clip-rule="evenodd"
   fill="#aa0432"
   d="m 470.14,282.673 c 1.404,5.202 2.812,10.403 4.213,15.606 23.996,89.078 48.014,178.151 71.909,267.257 0.936,3.487 2.318,4.656 5.982,4.671 55.313,0.216 110.626,0.564 165.938,0.999 3.324,0.026 4.859,-0.501 5.337,-4.273 2.678,-21.106 5.679,-42.172 8.561,-63.253 3.196,-23.387 6.388,-46.775 9.575,-70.163 3.459,-25.372 6.909,-50.745 10.367,-76.116 3.57,-26.192 7.171,-52.38 10.713,-78.574 3.81,-28.167 7.539,-56.345 11.354,-84.511 3.475,-25.646 7.018,-51.282 10.612,-77.516 3.293,2.283 5.051,5.307 7.111,7.946 49.28,63.156 82.033,133.894 97.43,212.594 5.509,28.157 8.473,56.543 9.149,85.242 1.957,82.952 -15.581,161.54 -52.49,235.759 -23.007,46.263 -52.68,87.892 -88.789,124.898 -66.509,68.161 -145.918,114.004 -238.225,137.342 -38.219,9.663 -77.108,14.543 -116.563,14.701 -6.161,0.024 -12.327,0.133 -18.479,0.43 -3.312,0.16 -3.935,-1.211 -3.521,-4.182 4.822,-34.62 9.579,-69.25 14.331,-103.88 5.86,-42.708 11.697,-85.42 17.55,-128.129 4.835,-35.285 9.695,-70.566 14.514,-105.853 5.516,-40.402 10.978,-80.813 16.502,-121.214 4.757,-34.788 9.577,-69.568 14.355,-104.354 3.804,-27.693 7.587,-55.39 11.383,-83.084 0.103,-0.747 0.247,-1.489 0.372,-2.233 0.27,-0.035 0.539,-0.073 0.809,-0.11 z"
   id="path12" />
		<path
   fill-rule="evenodd"
   clip-rule="evenodd"
   fill="#aa0432"
   d="m 622.356,461.736 c -3.25,-11.699 -6.253,-22.539 -9.274,-33.375 -24.206,-86.806 -48.423,-173.607 -72.584,-260.425 -0.764,-2.742 -1.232,-4.713 -5.021,-4.626 -18.82,0.431 -37.648,0.52 -56.474,0.705 -35.151,0.348 -70.302,0.737 -105.454,0.92 -3.417,0.018 -4.142,1.352 -4.536,4.243 -4.679,34.323 -9.449,68.633 -14.197,102.946 -7.872,56.902 -15.756,113.803 -23.615,170.707 -5.537,40.082 -11.109,80.159 -16.472,120.264 -0.644,4.811 -1.817,6.999 -7.405,6.958 -22.319,-0.163 -44.644,0.288 -66.966,0.504 -19.491,0.189 -38.983,0.286 -58.472,0.624 -3.541,0.062 -4.449,-0.697 -3.949,-4.387 9.063,-66.839 17.993,-133.696 26.938,-200.551 10.865,-81.21 21.714,-162.422 32.576,-243.632 7.373,-55.131 14.806,-110.254 22.041,-165.402 0.545,-4.153 2.164,-5.673 6.159,-6.734 36.305,-9.648 73.136,-15.494 110.708,-16.975 105.837,-4.171 203.193,22.577 292.715,79.007 8.409,5.301 10.733,10.391 9.344,20.173 -6.837,48.104 -12.829,96.33 -19.059,144.521 -6.999,54.14 -13.952,108.284 -20.888,162.432 -5.117,39.947 -10.173,79.902 -15.271,119.852 -0.055,0.434 -0.308,0.845 -0.844,2.251 z"
   id="path14" />
		<path
   fill-rule="evenodd"
   clip-rule="evenodd"
   fill="#aa0432"
   d="m 148.541,-0.817 c -2.512,18.239 -4.873,35.355 -7.224,52.473 -5.524,40.226 -11.031,80.453 -16.567,120.678 -5.376,39.068 -10.791,78.133 -16.168,117.201 -5.285,38.401 -10.513,76.811 -15.825,115.208 -3.851,27.839 -7.825,55.661 -11.695,83.497 -4.376,31.471 -8.724,62.945 -13.035,94.424 -4.492,32.791 -8.869,65.597 -13.481,98.37 -0.447,3.179 -0.009,4.005 3.256,3.981 50.979,-0.373 101.959,-0.674 152.938,-0.907 27.829,-0.128 55.658,-0.009 83.485,-0.237 4.428,-0.036 3.423,2.327 3.094,4.746 -4.031,29.697 -8.061,59.394 -12.121,89.087 -6.157,45.03 -12.389,90.05 -18.423,135.097 -0.556,4.147 -1.51,5.064 -5.78,3.838 C 180.209,893.432 109.347,852.967 49.033,794.41 -24.466,723.049 -71.936,637.18 -93.256,536.91 c -7.862,-36.976 -11.422,-74.397 -10.5,-112.13 C -100.953,310.008 -63.746,207.635 8.356,118.201 46.593,70.771 92.342,31.938 144.93,1.173 c 0.839,-0.491 1.702,-0.939 3.611,-1.99 z"
   id="path16" />
	</g>
</g>
</svg>
